<?xml version="1.0" standalone="no"?>
<!DOCTYPE svg PUBLIC "-//W3C//DTD SVG 20010904//EN"
 "http://www.w3.org/TR/2001/REC-SVG-20010904/DTD/svg10.dtd">
<svg version="1.0" xmlns="http://www.w3.org/2000/svg"
 width="4045.000000pt" height="1000.000000pt" viewBox="0 0 4045.000000 1000.000000"
 preserveAspectRatio="xMidYMid meet">
<metadata>
Created by potrace 1.11, written by Peter Selinger 2001-2013
</metadata>
<g transform="translate(0.000000,1000.000000) scale(0.100000,-0.100000)"
fill="#000000" stroke="none">
<path d="M30432 9488 c5 -14 -15 -38 -30 -38 -12 0 -82 -68 -82 -80 0 -6 -5
-10 -10 -10 -11 0 -70 -119 -70 -141 0 -8 -4 -19 -10 -25 -10 -10 -24 -101
-40 -260 -5 -50 -15 -104 -22 -120 -10 -23 -13 -711 -15 -3604 -2 -3599 -2
-3619 -35 -3730 -14 -44 -88 -171 -105 -177 -7 -3 -13 -11 -13 -17 0 -7 -18
-25 -40 -42 -22 -16 -40 -32 -40 -36 0 -5 -7 -8 -15 -8 -8 0 -15 -4 -15 -8 0
-9 -131 -67 -170 -75 -14 -3 -43 -10 -65 -16 -22 -6 -112 -11 -199 -11 -155 0
-191 5 -301 41 -16 6 -64 19 -105 30 -41 11 -79 25 -85 30 -5 5 -17 9 -26 9
-9 0 -29 7 -45 15 -22 11 -30 12 -36 2 -5 -8 -8 -7 -8 4 0 9 -6 19 -14 22 -22
9 -28 -67 -24 -293 l3 -195 838 0 c460 0 837 3 837 8 0 4 0 1971 0 4372 l0
4365 -31 0 c-20 0 -29 -4 -27 -12z"/>
<path d="M33082 9493 c2 -13 -13 -43 -23 -43 -11 0 -111 -106 -126 -133 -30
-56 -52 -116 -56 -157 -3 -25 -10 -67 -16 -95 -6 -27 -15 -95 -21 -150 -6 -55
-16 -127 -23 -160 -19 -97 -17 -4383 3 -4680 20 -297 19 -756 -2 -1183 -12
-237 -18 -518 -18 -856 l0 -503 -31 -69 c-17 -38 -35 -70 -40 -72 -5 -2 -9
-12 -9 -21 0 -29 -149 -174 -205 -200 -129 -58 -98 -49 -310 -86 -77 -14 -150
-29 -163 -35 -13 -5 -45 -10 -72 -10 -26 0 -50 -4 -52 -9 -1 -6 -55 -20 -118
-32 -63 -12 -134 -26 -156 -33 -46 -12 -128 -82 -140 -118 l-8 -23 -7 25 c-6
23 -7 22 -8 -10 -2 -33 -2 -34 -16 -16 -14 18 -15 16 -15 -27 l0 -47 850 0
850 0 0 4375 0 4375 -35 0 c-19 0 -34 -3 -33 -7z"/>
<path d="M7050 8399 c-52 -4 -183 -15 -290 -24 -107 -9 -339 -32 -515 -51
-176 -19 -459 -48 -630 -64 -474 -47 -659 -67 -1050 -115 -198 -25 -446 -53
-551 -64 -106 -11 -220 -25 -255 -30 -35 -5 -104 -12 -154 -16 -84 -7 -95 -10
-173 -56 -45 -27 -84 -49 -87 -49 -2 0 -30 -15 -62 -34 -32 -19 -222 -127
-423 -241 -464 -264 -854 -485 -950 -540 -41 -24 -174 -99 -295 -167 -561
-319 -1090 -622 -1140 -653 -30 -19 -58 -35 -64 -35 -5 0 -13 -5 -16 -10 -15
-24 54 -27 365 -14 420 17 469 18 476 11 9 -9 -64 -15 -401 -32 -482 -23 -497
-25 -493 -44 4 -21 108 -21 528 -1 391 18 389 18 405 -3 19 -26 38 -179 30
-234 -5 -37 -16 -56 -47 -87 -87 -87 -92 -154 -28 -346 23 -68 44 -144 47
-169 5 -45 -24 -280 -53 -431 -16 -86 -19 -444 -3 -525 5 -27 13 -89 17 -136
5 -47 12 -90 15 -96 4 -6 16 -59 28 -118 18 -99 19 -123 11 -279 -7 -113 -16
-186 -27 -216 -13 -37 -16 -76 -13 -210 2 -91 -3 -253 -11 -360 -15 -210 -11
-283 30 -510 10 -58 19 -126 19 -152 0 -55 14 -131 39 -208 10 -30 27 -103 37
-163 11 -67 23 -107 30 -107 7 0 23 14 35 31 30 43 38 128 39 432 0 146 7 336
16 437 16 184 15 303 -5 690 -15 303 -15 694 -1 834 17 160 8 297 -34 565 -40
248 -64 360 -95 439 -37 92 -23 218 35 334 31 62 30 99 -6 183 -29 68 -29 75
-30 230 0 88 4 166 9 173 5 9 62 16 197 23 104 5 248 14 319 19 72 6 216 13
320 15 105 3 261 7 348 10 157 4 159 4 183 -20 31 -31 30 -37 -8 -81 -29 -33
-35 -49 -49 -143 -9 -58 -26 -142 -38 -186 -15 -52 -28 -150 -38 -282 l-16
-202 28 -56 c16 -31 38 -61 49 -68 12 -6 57 -10 101 -8 95 2 245 -32 452 -105
113 -39 132 -49 137 -70 4 -16 11 -22 19 -18 9 5 9 4 0 -7 -7 -7 -13 -18 -13
-23 0 -6 4 -5 9 2 6 10 15 0 31 -35 13 -26 30 -52 37 -56 7 -4 13 -15 13 -22
0 -8 4 -15 9 -15 5 0 24 -20 42 -45 19 -24 40 -45 47 -45 6 0 12 -7 12 -15 0
-8 3 -15 8 -15 4 0 37 -28 73 -63 80 -76 106 -97 118 -97 5 0 11 -4 13 -8 5
-14 118 -72 139 -72 10 0 19 -4 19 -9 0 -5 12 -12 27 -16 45 -11 50 -20 43
-77 -4 -29 -8 -663 -9 -1408 -1 -866 -5 -1378 -12 -1420 -5 -36 -19 -82 -29
-103 -11 -21 -20 -42 -20 -47 0 -16 -81 -128 -104 -144 -11 -8 -37 -29 -56
-46 -64 -58 -184 -105 -319 -125 -52 -8 -107 -22 -124 -30 -17 -8 -41 -15 -54
-15 -13 0 -34 -5 -46 -12 -46 -24 -321 -88 -382 -88 -23 0 -57 -5 -76 -11 -32
-11 -120 -91 -132 -121 -3 -8 -6 -6 -7 7 -2 17 -3 16 -10 -5 -4 -14 -8 -33 -9
-43 -1 -16 44 -17 862 -15 l862 3 6 1826 c6 1673 8 1833 24 1905 40 185 81
291 117 298 13 3 71 7 129 9 89 4 116 9 175 35 38 16 83 33 100 36 31 7 124
94 176 166 14 19 61 70 104 113 l79 78 68 -6 c160 -15 336 -85 476 -190 81
-60 97 -66 87 -32 -32 105 -32 362 0 541 15 85 16 110 6 114 -6 2 -12 14 -12
27 0 14 -12 37 -27 53 -16 16 -36 39 -46 51 -15 19 -21 20 -33 10 -8 -7 -13
-18 -10 -25 3 -8 0 -11 -9 -7 -13 4 -12 9 3 32 21 32 32 51 72 120 84 144 252
368 320 425 18 14 37 22 49 19 12 -3 24 3 34 17 9 13 22 20 31 17 18 -7 26 13
26 65 0 38 -7 47 -118 162 -125 129 -178 193 -261 320 -28 44 -77 108 -107
143 -31 34 -60 78 -65 97 -12 42 3 116 25 128 9 5 143 100 299 211 155 111
363 254 460 317 98 63 246 160 330 214 84 55 229 148 322 207 214 135 225 160
70 157 -44 0 -123 -4 -175 -9z m-1985 -1579 c-10 -11 -24 -20 -31 -20 -7 0
-14 -4 -16 -9 -3 -8 -401 -300 -485 -355 -23 -16 -51 -43 -62 -61 -24 -41 -82
-56 -111 -30 -17 16 -51 16 -432 6 -227 -7 -537 -18 -688 -26 -151 -8 -448
-22 -660 -30 -212 -9 -520 -22 -685 -30 -351 -17 -375 -18 -375 -6 0 13 82 19
445 36 182 8 458 22 615 30 157 8 413 19 570 25 157 6 362 15 455 20 317 18
670 41 755 49 l86 8 279 185 c367 242 375 247 340 208z m-600 -987 c80 -170
107 -253 80 -253 -25 0 -82 99 -130 226 -30 80 -31 99 -5 101 15 1 27 -16 55
-74z"/>
<path d="M10500 6036 c0 -2 16 -14 35 -26 28 -17 34 -27 31 -49 -2 -20 1 -27
15 -27 13 0 15 3 7 13 -14 17 2 16 25 -1 14 -11 15 -15 5 -20 -7 -3 -4 -4 7
-3 12 1 19 -3 17 -11 -1 -8 2 -11 8 -7 13 8 13 -1 -2 -25 -10 -15 -9 -26 5
-55 9 -20 17 -40 17 -45 0 -5 12 -35 26 -67 38 -83 40 -91 65 -166 12 -37 26
-70 30 -73 5 -3 9 -16 9 -30 0 -13 4 -32 9 -42 18 -36 30 -69 45 -132 9 -36
21 -81 26 -100 5 -19 20 -78 34 -130 14 -52 30 -103 36 -112 5 -10 10 -32 10
-48 0 -17 6 -43 13 -58 8 -15 22 -62 32 -104 11 -43 22 -78 26 -78 4 0 9 -15
12 -32 3 -18 13 -55 23 -83 48 -137 57 -162 70 -192 8 -17 17 -45 20 -62 4
-17 13 -31 20 -31 8 0 16 -12 19 -27 3 -16 10 -41 16 -58 6 -16 19 -64 29
-106 22 -96 32 -115 41 -74 4 17 5 -66 3 -182 -2 -161 -7 -218 -18 -235 -7
-13 -17 -41 -20 -63 -4 -22 -16 -64 -27 -93 -10 -29 -19 -64 -19 -77 0 -13 -7
-30 -15 -39 -8 -8 -20 -37 -26 -65 -6 -28 -17 -58 -25 -65 -8 -8 -14 -23 -14
-34 0 -11 -6 -35 -14 -53 -7 -19 -20 -68 -27 -109 -7 -41 -17 -78 -22 -81 -5
-4 -11 -37 -14 -75 -3 -38 -9 -73 -13 -79 -22 -30 -39 -310 -46 -740 -3 -203
-10 -383 -15 -399 -5 -16 -9 -41 -9 -55 0 -53 -115 -248 -147 -250 -7 -1 -13
-7 -14 -13 -1 -21 -60 -65 -145 -108 -59 -30 -90 -40 -126 -40 -27 0 -48 -4
-48 -10 0 -5 -15 -10 -32 -10 -45 -1 -235 -48 -283 -71 -69 -32 -262 -71 -355
-71 -60 -1 -126 -30 -136 -60 -3 -10 -9 -18 -14 -18 -19 0 -60 -52 -62 -78 -1
-15 -4 2 -8 38 l-7 65 -1 -72 -2 -73 870 0 870 0 0 1958 0 1958 -25 142 c-74
422 -283 796 -595 1066 -156 134 -200 168 -200 152z"/>
<path d="M22920 5957 c0 -8 11 -18 25 -21 14 -4 25 -13 25 -21 0 -8 5 -15 11
-15 15 0 79 -50 79 -63 0 -5 10 -18 22 -28 l21 -19 -21 0 c-32 0 -27 -20 6
-21 15 -1 20 -3 10 -6 -19 -5 -15 -26 12 -58 17 -21 41 -69 60 -122 7 -18 16
-33 21 -33 5 0 9 -7 9 -15 0 -8 4 -15 8 -15 4 0 16 -24 26 -52 11 -29 25 -60
32 -69 8 -8 14 -21 14 -27 0 -7 4 -12 8 -12 4 0 16 -23 27 -51 11 -28 26 -55
33 -61 6 -6 12 -17 12 -25 0 -9 9 -32 19 -52 11 -20 29 -57 40 -83 12 -27 30
-67 40 -90 11 -24 22 -58 26 -77 4 -19 14 -41 21 -49 8 -7 14 -24 14 -36 0
-12 11 -45 24 -73 14 -27 28 -66 31 -86 4 -21 11 -37 16 -37 5 0 9 -7 9 -17 0
-16 41 -114 61 -143 5 -8 12 -23 15 -32 4 -10 9 -18 13 -18 4 0 17 -18 30 -40
12 -22 26 -40 32 -40 5 0 9 -7 9 -15 0 -8 4 -15 10 -15 5 0 27 -18 47 -40 21
-22 45 -40 54 -40 9 0 19 -7 23 -15 9 -26 36 -17 51 18 8 18 14 25 15 15 0
-10 5 -18 11 -18 6 0 9 6 6 13 -2 6 0 20 5 30 6 11 0 49 -16 115 -14 53 -28
108 -32 122 -38 151 -193 495 -301 668 -71 114 -182 274 -202 292 -3 3 -23 26
-43 51 -48 60 -213 227 -301 304 -38 33 -76 67 -85 75 -46 40 -82 61 -82 47z"/>
<path d="M38720 5901 c0 -6 7 -14 15 -17 8 -4 15 -11 15 -16 0 -6 -7 -7 -16
-4 -9 3 -12 2 -9 -5 4 -5 15 -7 26 -4 13 4 19 2 19 -8 0 -8 14 -42 30 -75 17
-34 30 -65 30 -70 0 -14 30 -71 41 -77 5 -4 9 -17 9 -31 0 -13 3 -24 8 -24 4
0 18 -22 31 -50 13 -27 28 -50 32 -50 5 0 9 -11 9 -24 0 -14 5 -28 11 -31 5
-4 20 -27 32 -51 54 -108 76 -152 96 -199 13 -27 27 -57 32 -65 5 -8 12 -22
15 -30 4 -8 18 -42 32 -75 13 -33 33 -79 44 -103 10 -24 21 -58 25 -75 3 -18
13 -45 21 -62 8 -16 20 -41 27 -55 7 -14 18 -50 25 -80 7 -30 19 -67 26 -82 8
-15 14 -38 14 -51 0 -14 7 -40 15 -60 8 -19 19 -65 25 -103 6 -38 17 -91 24
-119 45 -158 60 -405 28 -437 -7 -7 -12 -22 -12 -33 0 -12 -9 -31 -20 -43 -11
-12 -20 -25 -20 -30 0 -5 -9 -17 -20 -27 -11 -10 -20 -25 -20 -34 -1 -33 -151
-127 -270 -170 -69 -25 -1478 -53 -2485 -49 -429 1 -786 -1 -793 -5 -6 -5 -42
-12 -80 -17 -110 -13 -192 -37 -284 -82 -59 -29 -87 -49 -88 -60 0 -10 -7 -18
-15 -18 -15 0 -65 -45 -65 -60 0 -5 -6 -13 -12 -17 -17 -10 -34 -43 -53 -95
-16 -47 -22 -308 -7 -308 5 0 14 -19 21 -42 18 -66 54 -142 73 -156 10 -7 18
-20 18 -29 0 -9 37 -52 83 -97 99 -97 112 -107 156 -125 18 -8 48 -24 65 -36
28 -19 129 -44 132 -33 0 1 8 -3 17 -11 9 -7 14 -17 11 -22 -3 -5 1 -6 9 -3 8
3 18 1 22 -5 3 -6 10 -11 16 -11 5 0 -8 16 -30 35 -21 19 -44 35 -50 35 -6 0
-11 4 -11 10 0 5 -38 55 -85 111 -103 124 -164 214 -226 336 -52 104 -107 262
-116 334 l-6 49 949 0 c522 0 1233 2 1579 4 347 3 946 5 1333 5 l702 1 0 148
c0 181 -24 483 -51 657 -81 510 -251 967 -515 1386 -119 190 -462 574 -494
554 -7 -4 -10 -1 -8 7 2 7 -16 31 -40 52 -23 21 -42 33 -42 27z"/>
<path d="M16655 5880 c-3 -5 1 -10 9 -10 8 0 18 -4 21 -10 3 -6 -1 -7 -9 -4
-9 4 -16 1 -16 -6 0 -8 9 -10 24 -6 14 3 28 1 33 -7 13 -16 14 -57 2 -57 -5 0
-9 -4 -9 -10 0 -5 5 -9 12 -7 13 2 38 -39 38 -65 0 -19 43 -104 65 -128 8 -9
20 -31 26 -48 6 -18 15 -32 20 -32 5 0 9 -6 9 -14 0 -7 7 -19 14 -26 8 -6 20
-28 27 -48 6 -20 24 -57 39 -82 15 -25 33 -63 40 -85 7 -22 23 -59 36 -83 13
-24 33 -69 44 -100 11 -31 27 -75 35 -97 9 -22 18 -48 22 -57 3 -10 9 -18 13
-18 5 0 11 -18 15 -39 3 -22 13 -47 20 -58 8 -10 15 -28 15 -40 0 -13 4 -23 8
-23 5 0 19 -29 31 -65 13 -36 27 -68 32 -71 5 -3 9 -13 9 -23 0 -10 9 -26 20
-36 11 -10 20 -23 20 -30 0 -6 8 -20 18 -31 9 -11 26 -35 36 -54 25 -47 102
-117 149 -137 20 -8 37 -19 37 -24 0 -5 9 -9 19 -9 21 0 30 18 32 58 l1 27 8
-25 8 -25 1 28 c1 34 -39 188 -83 315 -108 309 -255 581 -456 840 -89 116
-259 294 -273 285 -5 -3 -7 -1 -4 4 6 9 -132 143 -146 143 -3 0 -9 -4 -12 -10z"/>
<path d="M36400 5706 c-36 -7 -92 -21 -125 -31 -33 -9 -78 -21 -99 -26 -42
-10 -131 -45 -156 -60 -8 -5 -31 -16 -50 -24 -19 -9 -42 -20 -50 -26 -8 -5
-23 -12 -32 -15 -10 -4 -18 -10 -18 -15 0 -5 -15 -15 -33 -23 -47 -19 -156
-99 -156 -113 -1 -7 -7 -13 -15 -13 -8 0 -30 -15 -49 -32 -18 -18 -48 -44 -65
-58 -17 -14 -31 -29 -32 -33 0 -4 -11 -20 -25 -35 -14 -15 -32 -34 -40 -43 -8
-9 -15 -21 -15 -27 0 -7 -6 -12 -12 -12 -15 -1 -105 -133 -122 -180 -3 -8 -10
-22 -15 -30 -18 -31 -51 -148 -63 -223 -16 -103 2 -267 32 -299 11 -12 20 -29
20 -38 0 -24 76 -95 84 -78 3 7 4 3 2 -9 -9 -52 12 -17 43 70 208 578 514 917
941 1040 87 25 108 30 240 48 202 29 517 -21 720 -113 133 -61 410 -270 410
-310 0 -4 9 -6 19 -5 11 1 17 6 14 14 -3 7 -12 12 -21 11 -11 -2 -18 8 -23 29
-3 18 -13 40 -20 49 -8 10 -13 25 -11 34 3 18 -38 100 -64 131 -8 8 -14 20
-14 26 0 6 -7 13 -15 17 -8 3 -20 17 -27 31 -6 14 -17 25 -25 25 -7 0 -13 4
-13 9 0 12 -59 71 -71 71 -5 0 -9 4 -9 8 0 5 -18 18 -40 31 -22 12 -40 26 -40
32 0 5 -5 9 -10 9 -6 0 -20 9 -32 20 -11 10 -33 22 -49 25 -15 4 -33 13 -40
21 -6 8 -19 14 -29 14 -10 0 -23 6 -29 14 -6 8 -33 19 -59 25 -26 6 -60 18
-77 26 -16 7 -64 21 -105 31 -99 23 -435 29 -530 10z"/>
<path d="M27180 5610 c-14 -4 -42 -8 -62 -9 -39 -1 -231 -51 -264 -69 -11 -6
-48 -22 -84 -37 -36 -15 -72 -34 -81 -41 -8 -8 -23 -14 -32 -14 -9 0 -17 -4
-17 -9 0 -5 -18 -16 -40 -25 -22 -9 -40 -23 -40 -31 0 -8 -7 -15 -15 -15 -17
0 -105 -60 -105 -72 0 -4 -9 -8 -20 -8 -11 0 -20 -7 -20 -15 0 -8 -5 -15 -10
-15 -9 0 -150 -138 -150 -147 0 -2 -18 -20 -40 -42 -22 -21 -40 -41 -40 -44 0
-3 -15 -27 -32 -53 -18 -25 -37 -53 -43 -62 -5 -9 -27 -42 -47 -74 -37 -57
-109 -202 -122 -245 -4 -13 -11 -23 -15 -23 -4 0 -13 -24 -20 -54 -6 -29 -18
-62 -26 -72 -8 -11 -15 -32 -15 -47 0 -16 -7 -41 -15 -55 -39 -71 -89 -475
-81 -652 13 -266 48 -463 111 -615 6 -16 18 -46 26 -65 7 -19 19 -41 26 -48 7
-7 13 -20 13 -28 0 -7 21 -53 46 -101 26 -49 56 -106 67 -128 27 -55 105 -174
136 -208 56 -62 128 -133 150 -147 13 -8 37 -25 54 -37 17 -13 35 -23 39 -23
5 0 26 -8 47 -19 23 -10 45 -15 53 -10 8 4 20 3 28 -3 12 -8 11 -8 -5 -3 -13
4 -17 3 -10 -4 6 -5 17 -11 24 -13 8 -2 25 -14 38 -27 13 -13 25 -22 27 -20 2
2 -32 42 -76 89 -151 160 -287 395 -361 626 -79 243 -99 375 -103 664 -2 217
3 287 36 480 35 207 141 480 245 636 25 37 45 69 45 73 0 6 29 41 112 136 301
344 772 499 1206 399 108 -25 279 -98 360 -152 15 -10 47 -32 71 -48 72 -47
161 -125 280 -244 48 -49 56 -55 32 -23 -18 24 -30 47 -27 52 4 5 2 12 -4 16
-5 3 -10 15 -10 27 0 14 -5 18 -15 15 -20 -8 -29 11 -15 28 9 11 9 15 1 15 -6
0 -11 9 -11 19 0 11 -6 26 -12 33 -7 7 -14 20 -16 28 -2 8 -10 22 -18 31 -8 8
-14 21 -14 27 0 7 -4 12 -10 12 -5 0 -16 13 -25 29 -33 65 -262 265 -335 293
-13 5 -27 13 -30 17 -9 14 -191 91 -265 113 -38 11 -97 24 -130 29 -83 14
-315 20 -345 9z"/>
<path d="M8410 5530 c-8 -5 -29 -10 -47 -10 -57 0 -296 -93 -323 -125 -7 -8
-18 -15 -25 -15 -8 0 -15 -3 -17 -7 -4 -10 -75 -63 -83 -63 -10 0 -187 -185
-226 -237 -20 -26 -44 -63 -53 -80 -9 -18 -21 -33 -26 -33 -6 0 -10 -7 -10
-15 0 -8 -4 -23 -9 -33 -5 -9 -19 -42 -31 -72 -12 -30 -26 -62 -30 -70 -4 -9
-13 -43 -20 -75 -6 -33 -21 -100 -32 -150 -19 -86 -20 -127 -20 -935 0 -465
-3 -1126 -7 -1470 l-8 -625 -26 -69 c-15 -39 -34 -77 -42 -86 -8 -9 -15 -21
-15 -26 0 -13 -78 -95 -120 -126 -100 -75 -133 -85 -470 -140 -36 -5 -75 -14
-88 -19 -13 -5 -33 -9 -44 -9 -25 0 -68 -13 -153 -46 -82 -32 -143 -46 -164
-39 -10 3 -31 -1 -47 -10 -16 -8 -34 -15 -41 -15 -6 0 -20 -11 -31 -25 -11
-14 -26 -25 -34 -25 -7 0 -19 -14 -25 -30 -6 -17 -17 -29 -25 -28 -7 2 -13 -4
-13 -12 0 -8 -6 -19 -12 -23 -7 -4 -13 -14 -13 -21 0 -21 221 -26 1013 -26
l717 0 0 1818 c0 1896 0 1870 40 2024 18 66 76 194 118 257 48 74 175 198 245
239 87 52 204 99 292 117 94 19 274 22 366 5 158 -29 318 -109 449 -226 30
-27 49 -41 42 -32 -8 9 -10 23 -6 29 5 8 3 9 -6 4 -10 -6 -12 -4 -7 9 6 14 3
17 -9 12 -12 -4 -15 -2 -10 9 4 10 -1 15 -15 15 -11 0 -18 4 -14 10 3 5 13 6
21 3 14 -5 15 -3 5 15 -6 11 -11 32 -11 46 0 14 -3 26 -7 26 -5 1 -23 24 -42
53 -18 29 -54 68 -78 87 -25 19 -51 41 -58 48 -8 6 -17 12 -21 12 -4 0 -17 8
-28 19 -12 10 -42 26 -69 36 -26 10 -58 28 -73 41 -14 13 -29 24 -34 24 -5 0
-13 6 -17 13 -14 23 -132 67 -178 67 -24 0 -47 5 -50 10 -8 13 -225 13 -245 0z"/>
<path d="M14315 5474 c-44 -8 -90 -18 -103 -24 -13 -5 -33 -10 -45 -10 -12 0
-30 -7 -40 -15 -10 -7 -42 -19 -70 -25 -29 -7 -59 -18 -67 -24 -8 -7 -44 -27
-80 -46 -36 -18 -66 -37 -68 -42 -2 -4 -12 -8 -23 -8 -10 0 -19 -4 -19 -9 0
-5 -17 -20 -37 -32 -21 -13 -39 -27 -41 -31 -2 -4 -8 -8 -14 -8 -13 0 -43 -27
-151 -135 -112 -113 -117 -119 -117 -133 0 -7 -4 -12 -8 -12 -12 0 -72 -88
-72 -105 0 -8 -4 -15 -9 -15 -5 0 -20 -17 -32 -37 -13 -21 -27 -39 -31 -41 -4
-2 -8 -12 -8 -22 0 -10 -4 -22 -10 -25 -5 -3 -23 -36 -40 -73 -17 -37 -37 -78
-44 -92 -8 -14 -19 -43 -26 -65 -7 -22 -18 -53 -26 -70 -19 -45 -51 -154 -58
-205 -4 -25 -13 -65 -21 -90 -11 -37 -32 -369 -26 -405 1 -5 6 -66 10 -135 11
-178 45 -340 96 -465 7 -16 20 -54 30 -82 9 -29 21 -55 26 -58 5 -4 9 -17 9
-31 0 -13 4 -24 9 -24 5 0 14 -15 22 -32 18 -46 131 -216 173 -261 20 -21 36
-41 36 -45 1 -4 19 -20 40 -37 21 -16 39 -34 40 -40 0 -5 18 -19 40 -29 22
-11 40 -22 40 -26 0 -4 8 -10 18 -14 21 -7 55 -28 63 -40 9 -11 57 -12 84 -2
16 6 17 6 5 -3 -13 -10 -13 -12 0 -21 8 -5 21 -8 28 -5 6 2 12 1 12 -3 0 -4
13 -16 28 -27 27 -19 27 -19 12 0 -8 11 -21 27 -30 35 -34 31 -119 138 -172
215 -122 176 -215 407 -262 650 -55 285 -44 639 29 912 135 510 434 866 856
1021 199 73 496 79 718 16 205 -59 444 -214 575 -372 20 -24 36 -40 36 -35 0
4 -11 21 -25 37 -14 16 -25 33 -25 38 0 5 -12 21 -27 35 -26 24 -26 25 -5 19
13 -5 22 -3 22 3 0 6 -4 11 -10 11 -10 0 -31 44 -51 109 -7 24 -19 45 -26 48
-7 3 -13 10 -13 17 0 6 -9 17 -20 24 -11 7 -20 17 -20 22 0 13 -88 100 -100
100 -5 0 -13 6 -17 13 -10 15 -137 100 -175 118 -16 7 -28 16 -28 21 0 4 -9 8
-20 8 -11 0 -20 4 -20 9 0 5 -32 19 -70 31 -39 12 -73 27 -76 31 -3 5 -25 9
-49 9 -24 0 -45 5 -47 10 -11 35 -333 51 -483 24z"/>
<path d="M20638 5473 c-43 -8 -78 -19 -78 -24 0 -5 -8 -9 -18 -9 -23 0 -150
-46 -179 -65 -12 -8 -31 -15 -42 -15 -11 0 -23 -5 -27 -11 -3 -6 -25 -20 -48
-30 -43 -21 -78 -40 -86 -50 -3 -3 -22 -15 -42 -28 -21 -12 -38 -27 -38 -32 0
-5 -5 -9 -11 -9 -26 0 -269 -230 -269 -254 0 -6 -13 -25 -29 -41 -24 -27 -51
-64 -98 -140 -23 -38 -153 -304 -153 -315 0 -6 -6 -21 -14 -33 -7 -12 -21 -53
-31 -92 -10 -38 -22 -74 -26 -79 -5 -6 -9 -27 -9 -48 0 -21 -4 -38 -9 -38 -9
0 -12 -19 -30 -180 -22 -197 -8 -568 25 -669 8 -25 14 -59 14 -76 0 -17 4 -35
9 -41 4 -5 17 -40 27 -79 10 -38 24 -76 31 -83 7 -7 13 -24 13 -37 0 -13 4
-26 9 -30 5 -3 19 -31 31 -63 12 -31 33 -72 46 -90 14 -17 30 -46 36 -62 5
-17 13 -30 16 -30 4 0 21 -23 37 -51 17 -29 38 -60 48 -70 9 -11 17 -21 17
-23 0 -7 93 -96 101 -96 5 0 9 -4 9 -10 0 -26 188 -129 211 -114 5 3 9 -2 9
-10 0 -9 5 -16 10 -16 6 0 10 5 10 10 0 6 7 10 15 10 18 0 20 -16 3 -24 -7 -4
-3 -4 9 -2 13 2 26 0 29 -5 3 -5 10 -9 17 -9 6 0 -5 17 -24 38 -190 200 -334
481 -403 787 -99 437 -47 932 136 1301 168 341 426 584 728 687 126 43 190 56
315 63 144 8 289 -7 412 -42 149 -43 340 -149 455 -253 28 -25 57 -45 67 -46
9 0 22 -4 29 -9 6 -4 12 -4 12 -1 0 11 -26 33 -46 38 -16 4 -16 5 -1 6 21 1
21 3 -3 53 -11 23 -20 49 -20 58 0 9 -8 25 -17 36 -10 10 -31 38 -46 61 -25
36 -88 100 -173 174 -12 11 -27 19 -33 19 -6 0 -11 4 -11 9 0 5 -8 12 -18 15
-10 3 -42 22 -72 41 -30 20 -73 40 -95 46 -22 6 -58 20 -79 30 -22 10 -52 19
-68 19 -15 0 -28 4 -28 9 0 34 -423 52 -562 24z"/>
<path d="M24011 3620 c-2 -40 -5 -50 -11 -35 -7 17 -12 10 -36 -42 -15 -35
-31 -63 -36 -63 -4 0 -8 -4 -8 -10 0 -5 -18 -39 -40 -75 -22 -36 -40 -68 -40
-70 0 -3 -7 -13 -16 -22 -23 -27 -64 -92 -64 -104 0 -5 -9 -19 -20 -31 -10
-11 -22 -34 -25 -49 -4 -16 -11 -31 -16 -34 -8 -5 -35 -61 -84 -170 -7 -16
-22 -50 -33 -75 -11 -25 -23 -60 -27 -78 -4 -18 -13 -36 -21 -39 -8 -3 -14
-15 -14 -28 0 -23 -75 -201 -91 -215 -3 -3 -16 -31 -28 -62 -13 -32 -27 -58
-32 -58 -5 0 -9 -7 -9 -15 0 -18 -49 -96 -67 -108 -7 -4 -13 -16 -13 -27 0
-10 -4 -20 -9 -22 -5 -1 -17 -17 -27 -34 -58 -95 -100 -153 -111 -154 -7 0
-13 -4 -13 -10 0 -9 -14 -27 -60 -75 -11 -12 -20 -24 -20 -29 0 -10 -240 -247
-291 -288 -19 -15 -50 -39 -69 -55 -19 -15 -37 -30 -40 -33 -3 -3 -22 -16 -42
-29 -21 -12 -38 -27 -38 -32 0 -5 -7 -9 -15 -9 -14 0 -75 -36 -105 -62 -8 -7
-38 -24 -65 -38 -27 -14 -58 -33 -69 -42 -11 -10 -24 -18 -29 -18 -6 0 -51
-20 -101 -44 -50 -24 -116 -54 -146 -66 -30 -12 -66 -26 -80 -32 -51 -21 -196
-67 -232 -73 -21 -4 -38 -11 -38 -16 0 -5 -17 -9 -39 -9 -21 0 -54 -6 -72 -14
-19 -7 -83 -21 -144 -30 -60 -9 -135 -21 -165 -26 -145 -25 -706 -18 -860 9
-30 6 -95 15 -143 21 -49 5 -98 15 -110 22 -12 6 -42 15 -67 19 -62 10 -186
45 -223 64 -16 8 -45 15 -64 15 -18 0 -33 4 -33 10 0 5 -26 17 -57 26 -57 17
-104 35 -153 59 -14 7 -43 18 -65 25 -22 7 -42 16 -45 20 -8 11 -71 40 -129
61 -30 10 -69 30 -87 44 -18 14 -35 25 -39 25 -10 0 -118 52 -135 65 -8 7 -36
19 -62 29 -26 10 -58 28 -70 42 -13 13 -29 24 -37 24 -7 0 -29 9 -47 21 -30
18 -35 19 -40 5 -5 -13 -9 -14 -20 -5 -8 6 -11 15 -8 20 7 12 -3 11 -25 -1
-14 -7 -24 -3 -45 19 -17 17 -24 34 -20 44 4 13 9 14 19 4 8 -7 9 -14 3 -18
-7 -4 -6 -9 1 -13 6 -4 11 -4 12 1 0 4 2 17 3 29 3 26 -31 26 -46 0 -12 -21 6
-45 119 -162 370 -387 875 -675 1418 -810 297 -74 560 -100 920 -91 233 7 381
23 595 67 166 34 433 119 568 181 34 16 65 29 70 29 8 0 100 47 207 105 310
169 638 446 860 725 78 99 202 279 255 371 44 77 152 303 179 374 13 33 29 76
37 95 64 162 127 434 159 690 18 148 20 437 2 380 l-11 -35 -6 35 -7 35 -3
-35 c-3 -32 -4 -30 -10 15 l-7 50 -2 -55z"/>
<path d="M17690 3495 c-2 -18 -4 -23 -7 -12 -2 9 -8 17 -12 17 -11 0 -71 -67
-71 -80 0 -5 -4 -10 -10 -10 -5 0 -15 -11 -22 -24 -7 -13 -28 -41 -46 -63 -43
-50 -132 -184 -132 -199 0 -7 -13 -26 -29 -43 -16 -17 -37 -51 -48 -76 -10
-25 -21 -45 -25 -45 -5 0 -8 -8 -8 -19 0 -10 -7 -24 -15 -31 -8 -7 -20 -30
-25 -51 -6 -21 -17 -45 -25 -53 -8 -8 -15 -24 -15 -35 0 -11 -4 -22 -9 -26 -5
-3 -17 -29 -26 -58 -15 -46 -82 -197 -105 -237 -5 -8 -21 -37 -36 -65 -14 -27
-35 -62 -45 -77 -11 -14 -19 -36 -19 -47 0 -12 -4 -21 -9 -21 -5 0 -20 -17
-32 -37 -13 -21 -27 -39 -31 -41 -4 -2 -8 -8 -8 -13 0 -12 -101 -154 -141
-198 -9 -10 -18 -24 -20 -30 -6 -16 -219 -231 -261 -263 -19 -15 -51 -42 -71
-60 -41 -37 -57 -50 -144 -113 -35 -25 -67 -45 -72 -45 -5 0 -11 -4 -13 -8 -1
-4 -20 -18 -40 -31 -21 -12 -38 -27 -38 -32 0 -5 -9 -9 -19 -9 -11 0 -23 -5
-26 -10 -3 -6 -23 -18 -43 -28 -36 -18 -71 -36 -102 -54 -8 -4 -26 -13 -40
-18 -14 -6 -33 -15 -42 -20 -53 -30 -101 -51 -175 -75 -29 -9 -55 -21 -58 -26
-4 -5 -17 -9 -31 -9 -14 0 -35 -6 -47 -14 -12 -8 -47 -19 -77 -26 -30 -7 -68
-18 -85 -25 -16 -8 -46 -16 -65 -18 -19 -3 -66 -12 -105 -20 -150 -32 -286
-50 -430 -58 -172 -10 -554 -3 -635 11 -30 5 -104 17 -165 26 -60 9 -125 23
-144 30 -18 8 -51 14 -72 14 -22 0 -39 4 -39 8 0 5 -26 14 -57 21 -65 14 -178
48 -207 63 -10 5 -44 16 -75 24 -31 8 -66 22 -78 30 -12 7 -31 14 -43 14 -11
0 -20 4 -20 8 0 4 -24 16 -52 26 -29 11 -60 25 -69 32 -8 8 -22 14 -29 14 -17
0 -138 59 -145 71 -4 5 -14 9 -24 9 -10 0 -24 6 -30 14 -6 7 -38 23 -70 35
-32 11 -70 32 -85 45 -16 13 -46 29 -67 35 -21 7 -39 15 -39 20 0 4 -24 18
-52 31 -98 43 -120 55 -132 73 -7 10 -23 17 -44 17 -37 0 -61 18 -54 39 3 8 0
11 -6 7 -6 -3 -21 4 -33 16 -12 13 -18 16 -14 8 20 -35 75 -100 146 -172 41
-43 74 -78 73 -78 -14 0 237 -215 321 -276 389 -279 820 -459 1293 -539 260
-44 595 -57 867 -34 322 27 649 104 935 221 112 46 390 190 473 244 571 378
970 883 1184 1499 93 269 160 605 161 818 1 56 -3 111 -8 122 -8 18 -9 16 -10
-10z"/>
<path d="M39498 2463 c-16 -2 -28 -8 -28 -12 0 -12 -36 -51 -47 -51 -22 0 -36
-76 -25 -139 8 -43 8 -70 1 -89 -14 -38 -84 -106 -146 -144 -29 -18 -53 -35
-53 -39 0 -3 -18 -14 -40 -24 -22 -10 -40 -22 -40 -27 0 -4 -7 -8 -15 -8 -8 0
-20 -9 -27 -20 -7 -11 -17 -20 -21 -20 -5 0 -14 -6 -21 -12 -7 -7 -30 -26 -51
-43 -21 -16 -50 -39 -64 -50 -34 -27 -162 -115 -205 -140 -18 -11 -48 -32 -67
-48 -18 -15 -46 -33 -61 -39 -15 -7 -28 -17 -28 -23 0 -10 -13 -18 -77 -49
-17 -9 -37 -21 -45 -28 -8 -7 -29 -21 -48 -31 -70 -37 -95 -52 -100 -58 -3 -4
-15 -9 -27 -13 -13 -4 -23 -12 -23 -17 0 -5 -6 -9 -14 -9 -7 0 -43 -15 -79
-33 -35 -19 -91 -44 -123 -57 -33 -13 -73 -32 -90 -41 -17 -9 -67 -27 -110
-39 -44 -12 -83 -26 -88 -31 -6 -5 -20 -9 -32 -9 -13 0 -25 -4 -28 -9 -3 -5
-47 -19 -98 -31 -51 -13 -97 -27 -102 -31 -6 -5 -26 -9 -45 -9 -20 0 -56 -7
-79 -15 -24 -9 -78 -20 -120 -26 -43 -6 -102 -15 -132 -21 -30 -5 -104 -14
-165 -19 -60 -5 -123 -11 -140 -13 -16 -2 -102 -7 -190 -11 -124 -5 -187 -4
-280 9 -65 9 -141 16 -168 16 -27 0 -86 7 -131 15 -329 60 -304 55 -466 99
-52 14 -103 30 -112 36 -10 5 -25 10 -33 10 -8 0 -23 4 -33 9 -9 6 -47 20 -84
31 -37 12 -70 26 -73 31 -4 5 -19 9 -35 9 -16 0 -31 4 -35 10 -3 5 -30 17 -60
26 -30 10 -55 21 -55 25 0 5 -18 13 -40 19 -22 6 -40 15 -40 20 0 6 -6 10 -13
10 -8 0 -36 11 -63 25 -27 14 -57 25 -66 25 -10 0 -18 7 -18 15 0 8 -5 15 -10
15 -17 0 -258 120 -275 136 -8 9 -21 17 -28 18 -29 5 -87 28 -87 35 0 8 -70
41 -88 41 -6 0 -16 8 -21 18 -9 14 -12 15 -20 3 -5 -7 -14 -10 -20 -6 -9 5 -9
10 0 21 8 10 8 14 0 14 -6 0 -11 -5 -11 -11 0 -8 -5 -7 -16 2 -10 8 -12 15 -5
17 17 6 13 23 -4 20 -8 -2 -31 15 -51 37 -19 22 -32 33 -27 25 16 -30 106
-140 115 -140 4 0 8 -6 8 -14 0 -7 63 -74 140 -149 144 -139 350 -302 475
-375 39 -23 75 -46 81 -51 23 -20 292 -150 399 -194 681 -278 1451 -330 2215
-151 341 80 579 166 885 321 428 217 814 532 1063 868 45 61 85 115 90 120 61
74 249 446 236 467 -5 8 -295 9 -346 1z"/>
<path d="M25086 1525 c104 -145 360 -373 542 -482 232 -139 393 -206 654 -272
820 -209 1724 -72 2302 349 45 32 95 71 111 85 17 15 41 36 54 46 13 11 21 22
18 26 -4 3 -14 0 -23 -8 -14 -11 -15 -10 -12 5 4 24 -60 44 -167 52 -84 7
-317 -20 -323 -37 -2 -5 -21 -9 -42 -9 -21 0 -40 -3 -42 -8 -1 -4 -41 -18 -88
-32 -46 -13 -98 -31 -115 -39 -49 -25 -235 -76 -381 -105 -209 -42 -322 -50
-654 -51 -260 0 -347 4 -435 17 -60 10 -141 22 -180 28 -38 6 -85 15 -102 20
-61 18 -98 28 -183 51 -47 12 -89 26 -95 30 -5 5 -19 9 -31 9 -13 0 -26 5 -29
10 -3 6 -13 10 -21 10 -13 0 -85 29 -126 51 -10 5 -28 9 -42 9 -13 0 -29 7
-36 15 -7 8 -18 15 -24 15 -6 0 -32 11 -58 25 -26 14 -53 25 -61 25 -8 0 -20
6 -26 14 -7 8 -34 20 -62 27 -27 7 -49 19 -49 26 0 7 -7 13 -15 13 -9 0 -27 7
-41 16 -13 9 -45 17 -69 18 -35 1 -45 5 -45 18 0 17 -66 56 -76 45 -11 -11 7
-26 24 -20 15 6 15 4 4 -9 -12 -15 -17 -13 -49 20 l-36 37 29 -40z"/>
</g>
</svg>
